{
  "accessors": [
    {
      "bufferView": 3,
      "componentType": 5126,
      "count": 9249,
      "max": [
        0.7593666911125183,
        1.250049114227295,
        0.4386082589626312
      ],
      "min": [
        -0.7953945398330688,
        -0.7909544110298157,
        -1.093268871307373
      ],
      "type": "VEC3"
    },
    {
      "bufferView": 3,
      "byteOffset": 110988,
      "componentType": 5126,
      "count": 9249,
      "max": [
        0.9999604225158691,
        0.9999854564666748,
        0.9993680715560913
      ],
      "min": [
        -0.9998209476470947,
        -0.999839186668396,
        -0.9994436502456665
      ],
      "type": "VEC3"
    },
    {
      "bufferView": 4,
      "componentType": 5126,
      "count": 9249,
      "max": [
        0.9999933242797852,
        0.9998676180839539,
        0.9996522068977356,
        1.0
      ],
      "min": [
        -0.9994903802871704,
        -0.9997014403343201,
        -0.9994949698448181,
        -1.0
      ],
      "type": "VEC4"
    },
    {
      "bufferView": 2,
      "componentType": 5126,
      "count": 9249,
      "max": [
        0.9968755841255188,
        0.9969297051429749
      ],
      "min": [
        0.0030730855651199818,
        0.005016446113586426
      ],
      "type": "VEC2"
    },
    {
      "bufferView": 1,
      "componentType": 5125,
      "count": 37128,
      "type": "SCALAR"
    },
    {
      "bufferView": 5,
      "componentType": 5126,
      "count": 23,
      "max": [
        1.0,
        0.8848411440849304,
        0.7094812989234924,
        0.0,
        0.692051112651825,
        1.0,
        0.8843780159950256,
        0.0,
        0.792281448841095,
        0.891636073589325,
        1.0,
        0.0,
        0.5901530385017395,
        0.2812756299972534,
        0.6628733277320862,
        1.0
      ],
      "min": [
        -0.9973928928375244,
        -0.8914910554885864,
        -0.9351628422737122,
        0.0,
        -0.7097504138946533,
        -0.9984465837478638,
        -0.6466333866119385,
        0.0,
        -0.6565384864807129,
        -0.492927223443985,
        -0.40372997522354126,
        0.0,
        -0.5991038680076599,
        -0.5632333755493164,
        -0.5632583498954773,
        1.0
      ],
      "type": "MAT4"
    },
    {
      "bufferView": 0,
      "componentType": 5123,
      "count": 9249,
      "type": "VEC4"
    },
    {
      "bufferView": 4,
      "byteOffset": 147984,
      "componentType": 5126,
      "count": 9249,
      "max": [
        1.0,
        0.49999597668647766,
        0.2983841300010681,
        0.21837717294692993
      ],
      "min": [
        0.28075510263442993,
        0.0,
        0.0,
        0.0
      ],
      "type": "VEC4"
    },
    {
      "bufferView": 6,
      "componentType": 5126,
      "count": 1,
      "max": [
        0.0
      ],
      "min": [
        0.0
      ],
      "type": "SCALAR"
    },
    {
      "bufferView": 7,
      "componentType": 5126,
      "count": 1,
      "max": [
        0.5652158856391907,
        -0.2701374590396881,
        -0.33368954062461853,
        0.7044203877449036
      ],
      "min": [
        0.5652158856391907,
        -0.2701374590396881,
        -0.33368954062461853,
        0.7044203877449036
      ],
      "type": "VEC4"
    },
    {
      "bufferView": 6,
      "byteOffset": 4,
      "componentType": 5126,
      "count": 1,
      "max": [
        0.0
      ],
      "min": [
        0.0
      ],
      "type": "SCALAR"
    },
    {
      "bufferView": 7,
      "byteOffset": 16,
      "componentType": 5126,
      "count": 1,
      "max": [
        -0.12450526654720306,
        0.014095239341259003,
        0.26380136609077454,
        0.9564040303230286
      ],
      "min": [
        -0.12450526654720306,
        0.014095239341259003,
        0.26380136609077454,
        0.9564040303230286
      ],
      "type": "VEC4"
    },
    {
      "bufferView": 6,
      "byteOffset": 8,
      "componentType": 5126,
      "count": 1,
      "max": [
        0.0
      ],
      "min": [
        0.0
      ],
      "type": "SCALAR"
    },
    {
      "bufferView": 7,
      "byteOffset": 32,
      "componentType": 5126,
      "count": 1,
      "max": [
        -0.3508734405040741,
        0.08265400677919388,
        0.08705540001392365,
        0.9286966919898987
      ],
      "min": [
        -0.3508734405040741,
        0.08265400677919388,
        0.08705540001392365,
        0.9286966919898987
      ],
      "type": "VEC4"
    },
    {
      "bufferView": 6,
      "byteOffset": 12,
      "componentType": 5126,
      "count": 1,
      "max": [
        0.0
      ],
      "min": [
        0.0
      ],
      "type": "SCALAR"
    },
    {
      "bufferView": 7,
      "byteOffset": 48,
      "componentType": 5126,
      "count": 1,
      "max": [
        0.5727980732917786,
        -0.18880970776081085,
        0.07843292504549026,
        0.7937893867492676
      ],
      "min": [
        0.5727980732917786,
        -0.18880970776081085,
        0.07843292504549026,
        0.7937893867492676
      ],
      "type": "VEC4"
    },
    {
      "bufferView": 6,
      "byteOffset": 16,
      "componentType": 5126,
      "count": 1,
      "max": [
        0.0
      ],
      "min": [
        0.0
      ],
      "type": "SCALAR"
    },
    {
      "bufferView": 7,
      "byteOffset": 64,
      "componentType": 5126,
      "count": 1,
      "max": [
        0.4215017855167389,
        0.13398315012454987,
        -0.2077489197254181,
        0.872482180595398
      ],
      "min": [
        0.4215017855167389,
        0.13398315012454987,
        -0.2077489197254181,
        0.872482180595398
      ],
      "type": "VEC4"
    }
  ],
  "animations": [
    {
      "channels": [
        {
          "sampler": 0,
          "target": {
            "node": 10,
            "path": "rotation"
          }
        },
        {
          "sampler": 1,
          "target": {
            "node": 13,
            "path": "rotation"
          }
        },
        {
          "sampler": 2,
          "target": {
            "node": 14,
            "path": "rotation"
          }
        },
        {
          "sampler": 3,
          "target": {
            "node": 16,
            "path": "rotation"
          }
        },
        {
          "sampler": 4,
          "target": {
            "node": 20,
            "path": "rotation"
          }
        }
      ],
      "name": "ArmatureAction",
      "samplers": [
        {
          "input": 8,
          "interpolation": "LINEAR",
          "output": 9
        },
        {
          "input": 10,
          "interpolation": "LINEAR",
          "output": 11
        },
        {
          "input": 12,
          "interpolation": "LINEAR",
          "output": 13
        },
        {
          "input": 14,
          "interpolation": "LINEAR",
          "output": 15
        },
        {
          "input": 16,
          "interpolation": "LINEAR",
          "output": 17
        }
      ]
    }
  ],
  "asset": {
    "extras": {
      "author": "dartuchiwa (https://sketchfab.com/dartuchiwa)",
      "license": "CC-BY-4.0 (http://creativecommons.org/licenses/by/4.0/)",
      "source": "https://sketchfab.com/3d-models/fire-monster-dae15e29dffd4b2eaeebbd9b0cb85b24",
      "title": "Fire Monster"
    },
    "generator": "Sketchfab-16.64.0",
    "version": "2.0"
  },
  "bufferViews": [
    {
      "buffer": 0,
      "byteLength": 73992,
      "byteStride": 8,
      "name": "shortBufferViews",
      "target": 34962
    },
    {
      "buffer": 0,
      "byteLength": 148512,
      "byteOffset": 73992,
      "name": "floatBufferViews",
      "target": 34963
    },
    {
      "buffer": 0,
      "byteLength": 73992,
      "byteOffset": 222504,
      "byteStride": 8,
      "name": "floatBufferViews",
      "target": 34962
    },
    {
      "buffer": 0,
      "byteLength": 221976,
      "byteOffset": 296496,
      "byteStride": 12,
      "name": "floatBufferViews",
      "target": 34962
    },
    {
      "buffer": 0,
      "byteLength": 295968,
      "byteOffset": 518472,
      "byteStride": 16,
      "name": "floatBufferViews",
      "target": 34962
    },
    {
      "buffer": 0,
      "byteLength": 1472,
      "byteOffset": 814440,
      "name": "floatBufferViews"
    },
    {
      "buffer": 0,
      "byteLength": 20,
      "byteOffset": 815912,
      "name": "floatBufferViews"
    },
    {
      "buffer": 0,
      "byteLength": 80,
      "byteOffset": 815932,
      "byteStride": 16,
      "name": "floatBufferViews"
    }
  ],
  "buffers": [
    {
      "byteLength": 816012,
      "uri": "scene.bin"
    }
  ],
  "extensionsUsed": [
    "KHR_materials_specular"
  ],
  "images": [
    {
      "uri": "textures/Flame_Mat_baseColor.png"
    },
    {
      "uri": "textures/Flame_Mat_normal.png"
    }
  ],
  "materials": [
    {
      "emissiveFactor": [
        1.0,
        1.0,
        1.0
      ],
      "emissiveTexture": {
        "index": 0
      },
      "extensions": {
        "KHR_materials_specular": {
          "specularColorFactor": [
            1.0,
            1.0,
            1.0
          ],
          "specularFactor": 0.15085760261364606
        }
      },
      "name": "Flame_Mat",
      "normalTexture": {
        "index": 1
      },
      "pbrMetallicRoughness": {
        "baseColorFactor": [
          0.5897160829442527,
          0.5897160829442527,
          0.5897160829442527,
          1.0
        ],
        "baseColorTexture": {
          "index": 0
        },
        "metallicFactor": 0.8091453231095561,
        "roughnessFactor": 0.981908
      }
    }
  ],
  "meshes": [
    {
      "name": "Object_0",
      "primitives": [
        {
          "attributes": {
            "JOINTS_0": 6,
            "NORMAL": 1,
            "POSITION": 0,
            "TANGENT": 2,
            "TEXCOORD_0": 3,
            "WEIGHTS_0": 7
          },
          "indices": 4,
          "material": 0,
          "mode": 4
        }
      ]
    }
  ],
  "nodes": [
    {
      "children": [
        1
      ],
      "matrix": [
        1.0,
        0.0,
        0.0,
        0.0,
        0.0,
        2.220446049250313e-16,
        -1.0,
        0.0,
        0.0,
        1.0,
        2.220446049250313e-16,
        0.0,
        0.0,
        0.0,
        0.0,
        1.0
      ],
      "name": "Sketchfab_model"
    },
    {
      "children": [
        2
      ],
      "name": "root"
    },
    {
      "children": [
        3
      ],
      "matrix": [
        1.0,
        0.0,
        0.0,
        0.0,
        0.0,
        2.220446049250313e-16,
        1.0,
        0.0,
        0.0,
        -1.0,
        2.220446049250313e-16,
        0.0,
        0.0,
        0.0,
        0.0,
        1.0
      ],
      "name": "GLTF_SceneRootNode"
    },
    {
      "children": [
        4
      ],
      "name": "RootNode_24"
    },
    {
      "children": [
        5
      ],
      "name": "Armature_23"
    },
    {
      "children": [
        6,
        8,
        7
      ],
      "name": "GLTF_created_0"
    },
    {
      "children": [
        9
      ],
      "name": "GLTF_created_0_rootJoint"
    },
    {
      "name": "Flame_22"
    },
    {
      "mesh": 0,
      "name": "Object_8",
      "skin": 0
    },
    {
      "children": [
        10,
        23,
        27
      ],
      "name": "mixamorig:Hips_21",
      "rotation": [
        -0.20684723556041718,
        -0.03186408802866936,
        0.024234862998127937,
        0.9775539040565491
      ],
      "scale": [
        0.9999999403953552,
        0.9999999403953552,
        1.0
      ],
      "translation": [
        -0.005974423605948687,
        -0.004774858243763447,
        -0.0048177121207118034
      ]
    },
    {
      "children": [
        11
      ],
      "name": "mixamorig:Spine_12",
      "rotation": [
        0.3546714782714844,
        -0.33285555243492126,
        -0.23905596137046814,
        0.840397298336029
      ],
      "scale": [
        1.0000001192092896,
        0.9999998807907104,
        0.9999999403953552
      ],
      "translation": [
        -0.0006383645813912153,
        0.11008939146995544,
        0.006825785618275404
      ]
    },
    {
      "children": [
        12
      ],
      "name": "mixamorig:Spine1_11",
      "rotation": [
        -0.012048880569636822,
        -0.18972784280776978,
        -0.04733351245522499,
        0.9806210994720459
      ],
      "scale": [
        1.0,
        1.0,
        0.9999999403953552
      ],
      "translation": [
        -0.00011966470628976822,
        0.11959186941385269,
        0.005715138278901577
      ]
    },
    {
      "children": [
        13,
        15,
        19
      ],
      "name": "mixamorig:Spine2_10",
      "rotation": [
        -0.04880568012595177,
        0.24030332267284393,
        0.038547273725271225,
        0.9687035083770752
      ],
      "scale": [
        0.9999999403953552,
        0.9999998807907104,
        0.9999998807907104
      ],
      "translation": [
        0.0028842505998909473,
        0.14289624989032745,
        0.012077482417225838
      ]
    },
    {
      "children": [
        14
      ],
      "name": "mixamorig:Neck_1",
      "rotation": [
        -0.029749596491456032,
        0.1606261134147644,
        0.07470997422933578,
        0.9837340712547302
      ],
      "scale": [
        0.9999999403953552,
        1.0000001192092896,
        1.0
      ],
      "translation": [
        -0.07407644391059875,
        0.1796955019235611,
        -0.02706047147512436
      ]
    },
    {
      "name": "mixamorig:Head_0",
      "rotation": [
        -0.37399521470069885,
        0.0811958834528923,
        0.0928025171160698,
        0.9191966652870178
      ],
      "scale": [
        1.0,
        0.9999999403953552,
        0.9999999403953552
      ],
      "translation": [
        0.04785902798175812,
        0.2083483338356018,
        0.09402994066476822
      ]
    },
    {
      "children": [
        16
      ],
      "name": "mixamorig:LeftShoulder_5",
      "rotation": [
        -0.13887831568717957,
        0.30145013332366943,
        -0.7888208031654358,
        0.5173029899597168
      ],
      "scale": [
        0.9999998807907104,
        0.9999998211860657,
        0.9999998807907104
      ],
      "translation": [
        0.0029482468962669373,
        0.19995903968811035,
        -0.12352854013442993
      ]
    },
    {
      "children": [
        17
      ],
      "name": "mixamorig:LeftArm_4",
      "rotation": [
        0.09960135072469711,
        -0.1286240965127945,
        -0.190993532538414,
        0.968017041683197
      ],
      "scale": [
        1.0,
        1.0,
        0.9999999403953552
      ],
      "translation": [
        0.012106269598007202,
        0.13438142836093903,
        0.0017522461712360382
      ]
    },
    {
      "children": [
        18
      ],
      "name": "mixamorig:LeftForeArm_3",
      "rotation": [
        0.1808817982673645,
        0.12134616076946259,
        0.18100370466709137,
        0.9590592980384827
      ],
      "scale": [
        1.0,
        1.0,
        0.9999999403953552
      ],
      "translation": [
        0.0010082649532705545,
        0.2884671986103058,
        -0.003894551657140255
      ]
    },
    {
      "name": "mixamorig:LeftHand_2",
      "rotation": [
        0.08820756524801254,
        -0.058047328144311905,
        -0.052790455520153046,
        0.9930071234703064
      ],
      "scale": [
        0.9999998211860657,
        0.9999999403953552,
        0.9999998807907104
      ],
      "translation": [
        -0.005083110183477402,
        0.2856586277484894,
        0.0009333202615380287
      ]
    },
    {
      "children": [
        20
      ],
      "name": "mixamorig:RightShoulder_9",
      "rotation": [
        0.5010005831718445,
        0.15529341995716095,
        0.7363138198852539,
        0.42746278643608093
      ],
      "scale": [
        1.0,
        1.0,
        1.0000001192092896
      ],
      "translation": [
        -0.1540098786354065,
        0.17949490249156952,
        0.05414300411939621
      ]
    },
    {
      "children": [
        21
      ],
      "name": "mixamorig:RightArm_8",
      "rotation": [
        0.11046861112117767,
        0.11375449597835541,
        0.2266247570514679,
        0.9609879851341248
      ],
      "scale": [
        0.9999998211860657,
        0.9999998211860657,
        0.9999998211860657
      ],
      "translation": [
        -0.002558209002017975,
        0.1265963464975357,
        0.006624534726142883
      ]
    },
    {
      "children": [
        22
      ],
      "name": "mixamorig:RightForeArm_7",
      "rotation": [
        0.17570805549621582,
        -0.13691657781600952,
        -0.19325388967990875,
        0.9555278420448303
      ],
      "translation": [
        0.0030282028019428253,
        0.3063984811306,
        -0.0006317049264907837
      ]
    },
    {
      "name": "mixamorig:RightHand_6",
      "rotation": [
        0.0806288868188858,
        0.10561633855104446,
        0.08817991614341736,
        0.9872023463249207
      ],
      "scale": [
        1.0,
        1.0,
        1.0000001192092896
      ],
      "translation": [
        -0.004433447495102882,
        0.28831592202186584,
        -0.005900254938751459
      ]
    },
    {
      "children": [
        24
      ],
      "name": "mixamorig:LeftUpLeg_16",
      "rotation": [
        -0.27198320627212524,
        0.15651221573352814,
        -0.8835015892982483,
        0.3477844297885895
      ],
      "scale": [
        1.0,
        0.9999999403953552,
        1.0
      ],
      "translation": [
        0.18606652319431305,
        -0.041679538786411285,
        0.04564771428704262
      ]
    },
    {
      "children": [
        25
      ],
      "name": "mixamorig:LeftLeg_15",
      "rotation": [
        -0.03736170753836632,
        0.33795103430747986,
        -0.28470906615257263,
        0.8962891101837158
      ],
      "scale": [
        1.0000001192092896,
        1.0000001192092896,
        0.9999999403953552
      ],
      "translation": [
        0.011628499254584312,
        0.2609880268573761,
        -0.009943094104528427
      ]
    },
    {
      "children": [
        26
      ],
      "name": "mixamorig:LeftFoot_14",
      "rotation": [
        0.35761842131614685,
        -0.2886330187320709,
        0.08947354555130005,
        0.8836258053779602
      ],
      "scale": [
        0.9999999403953552,
        1.0,
        0.9999999403953552
      ],
      "translation": [
        -0.0015289017464965582,
        0.3333655595779419,
        0.010543842799961567
      ]
    },
    {
      "name": "mixamorig:LeftToeBase_13",
      "rotation": [
        0.48627257347106934,
        -0.1805902123451233,
        -0.11450394988059998,
        0.8472396731376648
      ],
      "scale": [
        1.0,
        1.0,
        0.9999999403953552
      ],
      "translation": [
        0.005217947065830231,
        0.28260189294815063,
        -0.006141640245914459
      ]
    },
    {
      "children": [
        28
      ],
      "name": "mixamorig:RightUpLeg_20",
      "rotation": [
        -0.20139898359775543,
        0.014407511800527573,
        0.8984916806221008,
        0.38979947566986084
      ],
      "scale": [
        1.0000001192092896,
        1.0,
        0.9999999403953552
      ],
      "translation": [
        -0.136511892080307,
        -0.048392318189144135,
        0.0670066699385643
      ]
    },
    {
      "children": [
        29
      ],
      "name": "mixamorig:RightLeg_19",
      "rotation": [
        -0.20919311046600342,
        -0.2901831567287445,
        0.3429218530654907,
        0.8685832023620605
      ],
      "scale": [
        0.9999998807907104,
        0.9999999403953552,
        1.0
      ],
      "translation": [
        -0.0014983564615249634,
        0.24521107971668243,
        -0.005705937743186951
      ]
    },
    {
      "children": [
        30
      ],
      "name": "mixamorig:RightFoot_18",
      "rotation": [
        0.3519035577774048,
        0.2837442457675934,
        -0.04072621837258339,
        0.8910636901855469
      ],
      "scale": [
        1.0,
        1.0000001192092896,
        1.0
      ],
      "translation": [
        0.008124260231852531,
        0.3451823890209198,
        0.01353316567838192
      ]
    },
    {
      "name": "mixamorig:RightToeBase_17",
      "rotation": [
        0.39333370327949524,
        0.16327691078186035,
        0.14539673924446106,
        0.8930225372314453
      ],
      "scale": [
        1.0000001192092896,
        0.9999999403953552,
        1.0000001192092896
      ],
      "translation": [
        -0.006047993898391724,
        0.3036363124847412,
        0.0010139495134353638
      ]
    }
  ],
  "samplers": [
    {
      "magFilter": 9729,
      "minFilter": 9987,
      "wrapS": 10497,
      "wrapT": 10497
    }
  ],
  "scene": 0,
  "scenes": [
    {
      "name": "Sketchfab_Scene",
      "nodes": [
        0
      ]
    }
  ],
  "skins": [
    {
      "inverseBindMatrices": 5,
      "joints": [
        6,
        9,
        10,
        11,
        12,
        13,
        14,
        15,
        16,
        17,
        18,
        19,
        20,
        21,
        22,
        23,
        24,
        25,
        26,
        27,
        28,
        29,
        30
      ],
      "skeleton": 6
    }
  ],
  "textures": [
    {
      "sampler": 0,
      "source": 0
    },
    {
      "sampler": 0,
      "source": 1
    }
  ]
}
